# xmcd
#
# Track frame offsets:
#	150
#	30865
#	46676
#	70365
#	94548
#	115589
#	136901
#	159309
#	172829
#	187837
#
# Disc length: 3391 seconds
#
# Revision: 1
# Processed by: cddbd v1.4PL0 Copyright (c) Steve Scherf et al.
# Submitted via: PegasusMail 3.12c
#
DISCID=670d3d0a
DTITLE=Nick Cave And The Bad Seeds - Nocturama
DYEAR=2003
DGENRE=Rock
TTITLE0=Wonderful Life
TTITLE1=He Wants You
TTITLE2=Right Out Of Your Hand
TTITLE3=Bring It On
TTITLE4=Dead Man In My Bed
TTITLE5=Still In Love
TTITLE6=There Is A Town
TTITLE7=Rock Of Gibraltar
TTITLE8=She Passed By My Window
TTITLE9=Babe, I'm On Fire
EXTD=YEAR: 2003 ID3G: 0
EXTT0=
EXTT1=
EXTT2=
EXTT3=
EXTT4=
EXTT5=
EXTT6=
EXTT7=
EXTT8=
EXTT9=
PLAYORDER=
